<svg width="42" height="42" viewBox="0 0 42 42" fill="none" xmlns="http://www.w3.org/2000/svg">
<circle opacity="0.5" cx="21" cy="21" r="21" fill="#E6EAF5"/>
<g clip-path="url(#clip0_33_1560)">
<path fill-rule="evenodd" clip-rule="evenodd" d="M17.7864 11.2487C19.1642 10.9359 20.5926 10.9187 21.9776 11.1981C23.3625 11.4775 24.6726 12.0472 25.8214 12.8697C26.9702 13.6921 27.9316 14.7487 28.6424 15.9698C29.3532 17.1908 29.7972 18.5486 29.9451 19.9537C29.9711 20.201 29.8979 20.4485 29.7414 20.6418C29.5849 20.8351 29.3581 20.9583 29.1107 20.9843C28.8634 21.0104 28.6159 20.9371 28.4226 20.7806C28.2293 20.6241 28.1061 20.3973 28.0801 20.15C27.9194 18.6232 27.3295 17.1733 26.3787 15.968C25.4278 14.7628 24.155 13.8516 22.7076 13.34C21.2602 12.8283 19.6975 12.7372 18.2005 13.0772C16.7034 13.4171 15.3333 14.1743 14.2489 15.2608C13.1644 16.3474 12.41 17.719 12.073 19.2167C11.7359 20.7144 11.8301 22.2769 12.3446 23.7233C12.8591 25.1697 13.7728 26.4407 14.9799 27.3892C16.187 28.3377 17.6381 28.9248 19.1651 29.0825C19.2885 29.094 19.4083 29.1298 19.5178 29.1879C19.6272 29.246 19.724 29.3252 19.8026 29.421C19.8812 29.5167 19.9401 29.6271 19.9758 29.7458C20.0115 29.8644 20.0234 29.9889 20.0106 30.1122C19.9979 30.2354 19.9609 30.3549 19.9017 30.4637C19.8425 30.5726 19.7624 30.6686 19.6658 30.7463C19.5693 30.824 19.4583 30.8817 19.3394 30.9163C19.2204 30.9508 19.0957 30.9614 18.9726 30.9475C16.6138 30.7048 14.4179 29.6317 12.777 27.9198C11.1361 26.208 10.1569 23.9687 10.0142 21.6017C9.87154 19.2347 10.5746 16.894 11.998 14.9974C13.4214 13.1008 15.4725 11.7718 17.7851 11.2475L17.7864 11.2487ZM20.0001 14.75C20.2488 14.75 20.4872 14.8487 20.663 15.0245C20.8388 15.2004 20.9376 15.4388 20.9376 15.6875V22.25H15.9376C15.689 22.25 15.4505 22.1512 15.2747 21.9754C15.0989 21.7996 15.0001 21.5611 15.0001 21.3125C15.0001 21.0638 15.0989 20.8254 15.2747 20.6495C15.4505 20.4737 15.689 20.375 15.9376 20.375H19.0626V15.6875C19.0626 15.4388 19.1614 15.2004 19.3372 15.0245C19.513 14.8487 19.7515 14.75 20.0001 14.75ZM22.7751 23.775C22.9509 23.5994 23.1892 23.5008 23.4376 23.5008C23.6861 23.5008 23.9243 23.5994 24.1001 23.775L26.2501 25.925L28.4001 23.775C28.4859 23.6829 28.5894 23.609 28.7044 23.5577C28.8194 23.5065 28.9436 23.4789 29.0695 23.4767C29.1953 23.4745 29.3204 23.4977 29.4371 23.5448C29.5538 23.592 29.6599 23.6621 29.7489 23.7512C29.8379 23.8402 29.9081 23.9462 29.9553 24.063C30.0024 24.1797 30.0256 24.3047 30.0234 24.4306C30.0211 24.5565 29.9936 24.6806 29.9423 24.7956C29.8911 24.9106 29.8172 25.0141 29.7251 25.1L27.5751 27.25L29.7251 29.4C29.8172 29.4858 29.8911 29.5893 29.9423 29.7043C29.9936 29.8193 30.0211 29.9434 30.0234 30.0693C30.0256 30.1952 30.0024 30.3202 29.9553 30.437C29.9081 30.5537 29.8379 30.6597 29.7489 30.7488C29.6599 30.8378 29.5538 30.908 29.4371 30.9551C29.3204 31.0023 29.1953 31.0254 29.0695 31.0232C28.9436 31.021 28.8194 30.9934 28.7044 30.9422C28.5894 30.8909 28.4859 30.8171 28.4001 30.725L26.2501 28.575L24.1001 30.725C24.0143 30.8171 23.9108 30.8909 23.7958 30.9422C23.6808 30.9934 23.5566 31.021 23.4308 31.0232C23.3049 31.0254 23.1799 31.0023 23.0631 30.9551C22.9464 30.908 22.8403 30.8378 22.7513 30.7488C22.6623 30.6597 22.5921 30.5537 22.545 30.437C22.4978 30.3202 22.4747 30.1952 22.4769 30.0693C22.4791 29.9434 22.5066 29.8193 22.5579 29.7043C22.6091 29.5893 22.683 29.4858 22.7751 29.4L24.9251 27.25L22.7751 25.1C22.5996 24.9242 22.5009 24.6859 22.5009 24.4375C22.5009 24.189 22.5996 23.9507 22.7751 23.775Z" fill="url(#paint0_linear_33_1560)"/>
</g>
<defs>
<linearGradient id="paint0_linear_33_1560" x1="20.0098" y1="11.0006" x2="20.0098" y2="31.0233" gradientUnits="userSpaceOnUse">
<stop offset="0.236667" stop-color="#9747FF"/>
<stop offset="0.756667" stop-color="#D941FF"/>
</linearGradient>
<clipPath id="clip0_33_1560">
<rect width="20" height="20" fill="white" transform="translate(10 11)"/>
</clipPath>
</defs>
</svg>
