<svg width="22" height="22" viewBox="0 0 22 22" fill="none" xmlns="http://www.w3.org/2000/svg">
<path d="M6.63683 1.83337H4.89516C2.88766 1.83337 1.8335 2.88754 1.8335 4.88587V6.62754C1.8335 8.62587 2.88766 9.68004 4.886 9.68004H6.62766C8.626 9.68004 9.68016 8.62587 9.68016 6.62754V4.88587C9.68933 2.88754 8.63516 1.83337 6.63683 1.83337Z" fill="white"/>
<path d="M17.114 1.83337H15.3723C13.374 1.83337 12.3198 2.88754 12.3198 4.88587V6.62754C12.3198 8.62587 13.374 9.68004 15.3723 9.68004H17.114C19.1123 9.68004 20.1665 8.62587 20.1665 6.62754V4.88587C20.1665 2.88754 19.1123 1.83337 17.114 1.83337Z" fill="white"/>
<path d="M17.114 12.3108H15.3723C13.374 12.3108 12.3198 13.365 12.3198 15.3633V17.105C12.3198 19.1033 13.374 20.1575 15.3723 20.1575H17.114C19.1123 20.1575 20.1665 19.1033 20.1665 17.105V15.3633C20.1665 13.365 19.1123 12.3108 17.114 12.3108Z" fill="white"/>
<path d="M6.63683 12.3108H4.89516C2.88766 12.3108 1.8335 13.365 1.8335 15.3633V17.105C1.8335 19.1125 2.88766 20.1666 4.886 20.1666H6.62766C8.626 20.1666 9.68016 19.1125 9.68016 17.1141V15.3725C9.68933 13.365 8.63516 12.3108 6.63683 12.3108Z" fill="white"/>
</svg>
