<svg width="17" height="19" viewBox="0 0 17 19" fill="none" xmlns="http://www.w3.org/2000/svg">
<g opacity="0.8">
<path d="M2.74558 2.28159H2.81649L2.83995 2.21468C3.03838 1.64873 3.40634 1.15876 3.89298 0.812236C4.37961 0.465722 4.96099 0.279688 5.55698 0.279688C6.15297 0.279688 6.73435 0.465722 7.22098 0.812236C7.70762 1.15876 8.07558 1.64873 8.27401 2.21468L8.29747 2.28159H8.36838H15.4913C15.728 2.28159 15.9552 2.37623 16.1228 2.54489C16.2904 2.71358 16.3847 2.94249 16.3847 3.18132C16.3847 3.42015 16.2904 3.64906 16.1228 3.81775C15.9552 3.98641 15.728 4.08105 15.4913 4.08105H8.36838H8.29747L8.27401 4.14796C8.07558 4.71392 7.70762 5.20389 7.22098 5.55041C6.73435 5.89692 6.15297 6.08295 5.55698 6.08295C4.96099 6.08295 4.37961 5.89692 3.89298 5.55041C3.40634 5.20389 3.03838 4.71392 2.83995 4.14796L2.81649 4.08105H2.74558H1.58327C1.34652 4.08105 1.11935 3.98641 0.951746 3.81775C0.784125 3.64906 0.689844 3.42015 0.689844 3.18132C0.689844 2.94249 0.784125 2.71358 0.951746 2.54489C1.11935 2.37623 1.34652 2.28159 1.58327 2.28159H2.74558ZM8.70614 8.27996H8.77705L8.80051 8.21305C8.99895 7.64709 9.3669 7.15712 9.85354 6.8106C10.3402 6.46409 10.9216 6.27805 11.5175 6.27805C12.1135 6.27805 12.6949 6.46409 13.1815 6.8106C13.6682 7.15712 14.0361 7.64709 14.2346 8.21305L14.258 8.27996H14.3289H15.4913C15.728 8.27996 15.9552 8.3746 16.1228 8.54326C16.2904 8.71194 16.3847 8.94086 16.3847 9.17969C16.3847 9.41851 16.2904 9.64743 16.1228 9.81611C15.9552 9.98478 15.728 10.0794 15.4913 10.0794H14.3289H14.258L14.2346 10.1463C14.0361 10.7123 13.6682 11.2023 13.1815 11.5488C12.6949 11.8953 12.1135 12.0813 11.5175 12.0813C10.9216 12.0813 10.3402 11.8953 9.85354 11.5488C9.3669 11.2023 8.99895 10.7123 8.80051 10.1463L8.77705 10.0794H8.70614H1.58327C1.34652 10.0794 1.11935 9.98478 0.951746 9.81611C0.784125 9.64743 0.689844 9.41851 0.689844 9.17969C0.689844 8.94086 0.784125 8.71194 0.951746 8.54326C1.11935 8.3746 1.34652 8.27996 1.58327 8.27996H8.70614ZM2.74558 14.2783H2.81649L2.83995 14.2114C3.03838 13.6455 3.40634 13.1555 3.89298 12.809C4.37961 12.4625 4.96099 12.2764 5.55698 12.2764C6.15297 12.2764 6.73435 12.4625 7.22098 12.809C7.70762 13.1555 8.07558 13.6455 8.27401 14.2114L8.29747 14.2783H8.36838H15.4913C15.728 14.2783 15.9552 14.373 16.1228 14.5416C16.2904 14.7103 16.3847 14.9392 16.3847 15.1781C16.3847 15.4169 16.2904 15.6458 16.1228 15.8145C15.9552 15.9831 15.728 16.0778 15.4913 16.0778H8.36838H8.29747L8.27401 16.1447C8.07558 16.7106 7.70762 17.2006 7.22098 17.5471C6.73435 17.8937 6.15297 18.0797 5.55698 18.0797C4.96099 18.0797 4.37961 17.8937 3.89298 17.5471C3.40634 17.2006 3.03838 16.7106 2.83995 16.1447L2.81649 16.0778H2.74558H1.58327C1.34652 16.0778 1.11935 15.9831 0.951746 15.8145C0.784125 15.6458 0.689844 15.4169 0.689844 15.1781C0.689844 14.9392 0.784125 14.7103 0.951746 14.5416C1.11935 14.373 1.34652 14.2783 1.58327 14.2783H2.74558ZM5.55698 2.08159C5.26678 2.08159 4.9886 2.19761 4.78359 2.40392C4.5786 2.61021 4.46355 2.88986 4.46355 3.18132C4.46355 3.47278 4.5786 3.75243 4.78359 3.95872C4.9886 4.16503 5.26678 4.28105 5.55698 4.28105C5.84718 4.28105 6.12536 4.16503 6.33037 3.95872C6.53536 3.75243 6.65041 3.47278 6.65041 3.18132C6.65041 2.88986 6.53536 2.61021 6.33037 2.40392C6.12536 2.19761 5.84718 2.08159 5.55698 2.08159ZM11.5175 8.07996C11.2273 8.07996 10.9492 8.19598 10.7442 8.40229C10.5392 8.60857 10.4241 8.88822 10.4241 9.17969C10.4241 9.47115 10.5392 9.7508 10.7442 9.95709C10.9492 10.1634 11.2273 10.2794 11.5175 10.2794C11.8077 10.2794 12.0859 10.1634 12.2909 9.95709C12.4959 9.7508 12.611 9.47115 12.611 9.17969C12.611 8.88822 12.4959 8.60857 12.2909 8.40229C12.0859 8.19598 11.8077 8.07996 11.5175 8.07996ZM5.55698 14.0783C5.26678 14.0783 4.9886 14.1943 4.78359 14.4007C4.5786 14.6069 4.46355 14.8866 4.46355 15.1781C4.46355 15.4695 4.5786 15.7492 4.78359 15.9555C4.9886 16.1618 5.26678 16.2778 5.55698 16.2778C5.84718 16.2778 6.12536 16.1618 6.33037 15.9555C6.53536 15.7492 6.65041 15.4695 6.65041 15.1781C6.65041 14.8866 6.53536 14.6069 6.33037 14.4007C6.12536 14.1943 5.84718 14.0783 5.55698 14.0783Z" fill="#252C58" stroke="white" stroke-width="0.2"/>
</g>
</svg>
