<svg width="22" height="22" viewBox="0 0 22 22" fill="none" xmlns="http://www.w3.org/2000/svg">
<path d="M14.4832 2.02579C14.1074 1.64995 13.4565 1.90662 13.4565 2.42912V5.62829C13.4565 6.96662 14.5932 8.07579 15.9774 8.07579C16.8482 8.08495 18.0582 8.08495 19.094 8.08495C19.6165 8.08495 19.8915 7.47079 19.5249 7.10412C18.2049 5.77495 15.8399 3.38245 14.4832 2.02579Z" fill="#C9C9C9" fill-opacity="0.7"/>
<path d="M18.7915 9.34087H16.1423C13.9698 9.34087 12.2007 7.57171 12.2007 5.39921V2.75004C12.2007 2.24587 11.7882 1.83337 11.284 1.83337H7.39734C4.574 1.83337 2.2915 3.66671 2.2915 6.93921V15.0609C2.2915 18.3334 4.574 20.1667 7.39734 20.1667H14.6023C17.4257 20.1667 19.7082 18.3334 19.7082 15.0609V10.2575C19.7082 9.75337 19.2957 9.34087 18.7915 9.34087ZM10.5415 16.2709H6.87484C6.499 16.2709 6.18734 15.9592 6.18734 15.5834C6.18734 15.2075 6.499 14.8959 6.87484 14.8959H10.5415C10.9173 14.8959 11.229 15.2075 11.229 15.5834C11.229 15.9592 10.9173 16.2709 10.5415 16.2709ZM12.3748 12.6042H6.87484C6.499 12.6042 6.18734 12.2925 6.18734 11.9167C6.18734 11.5409 6.499 11.2292 6.87484 11.2292H12.3748C12.7507 11.2292 13.0623 11.5409 13.0623 11.9167C13.0623 12.2925 12.7507 12.6042 12.3748 12.6042Z" fill="#C9C9C9" fill-opacity="0.7"/>
</svg>
