<svg width="42" height="42" viewBox="0 0 42 42" fill="none" xmlns="http://www.w3.org/2000/svg">
<circle opacity="0.5" cx="21" cy="21" r="21" fill="#E6EAF5"/>
<path d="M22.1 32C20.7 32 19.3877 31.7333 18.163 31.2C16.9383 30.6667 15.8717 29.9457 14.963 29.037C14.0543 28.129 13.3333 27.0623 12.8 25.837C12.2667 24.6117 12 23.2993 12 21.9C12 19.4667 12.775 17.3207 14.325 15.462C15.875 13.6033 17.85 12.4493 20.25 12C19.95 13.65 20.0417 15.2627 20.525 16.838C21.0083 18.4133 21.8417 19.7923 23.025 20.975C24.2083 22.1583 25.5877 22.9917 27.163 23.475C28.7383 23.9583 30.3507 24.05 32 23.75C31.5667 26.15 30.4167 28.125 28.55 29.675C26.6833 31.225 24.5333 32 22.1 32ZM22.1 30C23.5667 30 24.925 29.6333 26.175 28.9C27.425 28.1667 28.4083 27.1583 29.125 25.875C27.6917 25.7417 26.3333 25.379 25.05 24.787C23.7667 24.195 22.6167 23.391 21.6 22.375C20.5833 21.3583 19.775 20.2083 19.175 18.925C18.575 17.6417 18.2167 16.2833 18.1 14.85C16.8167 15.5667 15.8127 16.5543 15.088 17.813C14.3633 19.0717 14.0007 20.434 14 21.9C14 24.15 14.7877 26.0627 16.363 27.638C17.9383 29.2133 19.8507 30.0007 22.1 30Z" fill="url(#paint0_linear_33_1522)"/>
<defs>
<linearGradient id="paint0_linear_33_1522" x1="22" y1="12" x2="22" y2="32" gradientUnits="userSpaceOnUse">
<stop offset="0.236667" stop-color="#9747FF"/>
<stop offset="0.756667" stop-color="#D941FF"/>
</linearGradient>
</defs>
</svg>
