<svg width="22" height="22" viewBox="0 0 22 22" fill="none" xmlns="http://www.w3.org/2000/svg">
<path d="M14.8405 1.83337H7.15884C3.82217 1.83337 1.83301 3.82254 1.83301 7.15921V14.8317C1.83301 18.1775 3.82217 20.1667 7.15884 20.1667H14.8313C18.168 20.1667 20.1572 18.1775 20.1572 14.8409V7.15921C20.1663 3.82254 18.1772 1.83337 14.8405 1.83337ZM10.0372 16.0509C9.77134 16.3167 9.26717 16.5734 8.90051 16.6284L6.64551 16.9492C6.56301 16.9584 6.48051 16.9675 6.39801 16.9675C6.02217 16.9675 5.67384 16.8392 5.42634 16.5917C5.12384 16.2892 4.99551 15.8492 5.06884 15.3634L5.38967 13.1084C5.44467 12.7325 5.69217 12.2375 5.96718 11.9717L10.0555 7.88337C10.1288 8.07587 10.2022 8.26837 10.303 8.48837C10.3947 8.68087 10.4955 8.88254 10.6055 9.06587C10.6972 9.22171 10.798 9.36837 10.8805 9.47837C10.9813 9.63421 11.1005 9.78087 11.1738 9.86337C11.2197 9.92754 11.2563 9.97337 11.2747 9.99171C11.5038 10.2667 11.7697 10.5234 11.9988 10.7159C12.063 10.78 12.0997 10.8167 12.118 10.8259C12.2555 10.9359 12.393 11.0459 12.5122 11.1284C12.6588 11.2384 12.8055 11.3392 12.9613 11.4217C13.1447 11.5317 13.3463 11.6325 13.548 11.7334C13.7588 11.825 13.9513 11.9075 14.1438 11.9717L10.0372 16.0509ZM15.9222 10.1659L15.0788 11.0184C15.0238 11.0734 14.9505 11.1009 14.8772 11.1009C14.8497 11.1009 14.813 11.1009 14.7947 11.0917C12.9338 10.56 11.4488 9.07504 10.9172 7.21421C10.8897 7.11337 10.9172 7.00337 10.9905 6.93921L11.843 6.08671C13.2363 4.69337 14.5655 4.72087 15.9313 6.08671C16.628 6.78337 16.9672 7.45254 16.9672 8.14921C16.958 8.80921 16.6188 9.46921 15.9222 10.1659Z" fill="#6E6EF7"/>
</svg>
