<svg width="22" height="22" viewBox="0 0 22 22" fill="none" xmlns="http://www.w3.org/2000/svg">
<path d="M16.069 7.12254C16.0048 7.11337 15.9406 7.11337 15.8765 7.12254C14.4556 7.07671 13.3281 5.91254 13.3281 4.48254C13.3281 3.02504 14.5106 1.83337 15.9773 1.83337C17.4348 1.83337 18.6265 3.01587 18.6265 4.48254C18.6173 5.91254 17.4898 7.07671 16.069 7.12254Z" fill="#C9C9C9" fill-opacity="0.7"/>
<path d="M19.0576 13.475C18.031 14.1625 16.5918 14.4192 15.2626 14.245C15.611 13.4933 15.7943 12.6592 15.8035 11.7792C15.8035 10.8625 15.6018 9.99167 15.2168 9.23084C16.5735 9.0475 18.0126 9.30417 19.0485 9.99167C20.4968 10.945 20.4968 12.5125 19.0576 13.475Z" fill="#C9C9C9" fill-opacity="0.7"/>
<path d="M5.90331 7.12254C5.96748 7.11337 6.03165 7.11337 6.09581 7.12254C7.51665 7.07671 8.64415 5.91254 8.64415 4.48254C8.64415 3.01587 7.46165 1.83337 5.99498 1.83337C4.53748 1.83337 3.35498 3.01587 3.35498 4.48254C3.35498 5.91254 4.48248 7.07671 5.90331 7.12254Z" fill="#C9C9C9" fill-opacity="0.7"/>
<path d="M6.00403 11.7792C6.00403 12.6684 6.19653 13.5117 6.54486 14.2726C5.25236 14.4101 3.90486 14.1351 2.91486 13.4842C1.46653 12.5217 1.46653 10.9542 2.91486 9.99172C3.8957 9.33172 5.27986 9.06589 6.58153 9.21255C6.2057 9.98255 6.00403 10.8534 6.00403 11.7792Z" fill="#C9C9C9" fill-opacity="0.7"/>
<path d="M11.1099 14.5475C11.0366 14.5383 10.9541 14.5383 10.8716 14.5475C9.1849 14.4925 7.8374 13.1083 7.8374 11.4033C7.84657 9.66167 9.24907 8.25 10.9999 8.25C12.7416 8.25 14.1532 9.66167 14.1532 11.4033C14.1441 13.1083 12.8057 14.4925 11.1099 14.5475Z" fill="#C9C9C9" fill-opacity="0.7"/>
<path d="M8.1309 16.445C6.74673 17.3709 6.74673 18.8925 8.1309 19.8092C9.70757 20.8634 12.2926 20.8634 13.8692 19.8092C15.2534 18.8834 15.2534 17.3617 13.8692 16.445C12.3017 15.3909 9.71673 15.3909 8.1309 16.445Z" fill="#C9C9C9" fill-opacity="0.7"/>
</svg>
