<svg width="42" height="42" viewBox="0 0 42 42" fill="none" xmlns="http://www.w3.org/2000/svg">
<circle opacity="0.5" cx="21" cy="21" r="21" fill="#E6EAF5"/>
<path d="M24.4998 19.1667H26.2498V22.4567L29.0965 24.1017L28.2215 25.6184L24.4998 23.4717V19.1667ZM28.1515 14.885C27.1015 11.945 24.3015 9.83337 20.9998 9.83337C17.8498 9.83337 15.1665 11.7584 13.9998 14.5C10.7798 14.5 8.1665 17.1134 8.1665 20.3334C8.1665 23.5534 10.7798 26.1667 13.9998 26.1667H18.2932C19.6115 28.92 22.4115 30.8334 25.6665 30.8334C30.1815 30.8334 33.8332 27.1817 33.8332 22.6667C33.8332 19.0267 31.4532 15.9467 28.1515 14.885ZM13.9998 23.8334C12.0632 23.8334 10.4998 22.27 10.4998 20.3334C10.4998 18.3967 12.0632 16.8334 13.9998 16.8334C14.4315 16.8334 14.8515 16.915 15.2365 17.055C15.4617 15.6892 16.1648 14.4479 17.2205 13.5525C18.2761 12.6571 19.6156 12.166 20.9998 12.1667C22.9015 12.1667 24.5815 13.0884 25.6665 14.5C21.1398 14.5 17.4998 18.1634 17.4998 22.6667C17.4998 23.0634 17.5348 23.4484 17.5932 23.8334H13.9998ZM25.6665 28.5C22.4465 28.5 19.8332 25.8867 19.8332 22.6667C19.8332 19.4467 22.4465 16.8334 25.6665 16.8334C28.8865 16.8334 31.4998 19.4467 31.4998 22.6667C31.4998 25.8867 28.8865 28.5 25.6665 28.5Z" fill="url(#paint0_linear_33_1503)"/>
<defs>
<linearGradient id="paint0_linear_33_1503" x1="20.9998" y1="9.83337" x2="20.9998" y2="30.8334" gradientUnits="userSpaceOnUse">
<stop offset="0.236667" stop-color="#9747FF"/>
<stop offset="0.756667" stop-color="#D941FF"/>
</linearGradient>
</defs>
</svg>
