<svg width="22" height="22" viewBox="0 0 22 22" fill="none" xmlns="http://www.w3.org/2000/svg">
<path d="M16.5002 2.75H5.50016C3.47433 2.75 1.8335 4.38167 1.8335 6.38917V15.6108C1.8335 17.6183 3.47433 19.25 5.50016 19.25H16.5002C18.526 19.25 20.1668 17.6183 20.1668 15.6108V6.38917C20.1668 4.38167 18.526 2.75 16.5002 2.75ZM7.79183 6.5725C8.956 6.5725 9.90933 7.52583 9.90933 8.69C9.90933 9.85417 8.956 10.8075 7.79183 10.8075C6.62766 10.8075 5.67433 9.85417 5.67433 8.69C5.67433 7.52583 6.62766 6.5725 7.79183 6.5725ZM11.3393 15.2717C11.2568 15.3633 11.1285 15.4183 11.0002 15.4183H4.5835C4.45516 15.4183 4.32683 15.3633 4.24433 15.2717C4.16183 15.18 4.116 15.0517 4.12516 14.9233C4.281 13.3833 5.50933 12.1642 7.04933 12.0175C7.53516 11.9717 8.03933 11.9717 8.52516 12.0175C10.0652 12.1642 11.3027 13.3833 11.4493 14.9233C11.4677 15.0517 11.4218 15.18 11.3393 15.2717ZM17.4168 15.3542H15.5835C15.2077 15.3542 14.896 15.0425 14.896 14.6667C14.896 14.2908 15.2077 13.9792 15.5835 13.9792H17.4168C17.7927 13.9792 18.1043 14.2908 18.1043 14.6667C18.1043 15.0425 17.7927 15.3542 17.4168 15.3542ZM17.4168 11.6875H13.7502C13.3743 11.6875 13.0627 11.3758 13.0627 11C13.0627 10.6242 13.3743 10.3125 13.7502 10.3125H17.4168C17.7927 10.3125 18.1043 10.6242 18.1043 11C18.1043 11.3758 17.7927 11.6875 17.4168 11.6875ZM17.4168 8.02083H12.8335C12.4577 8.02083 12.146 7.70917 12.146 7.33333C12.146 6.9575 12.4577 6.64583 12.8335 6.64583H17.4168C17.7927 6.64583 18.1043 6.9575 18.1043 7.33333C18.1043 7.70917 17.7927 8.02083 17.4168 8.02083Z" fill="#C9C9C9" fill-opacity="0.7"/>
</svg>
