<svg width="22" height="22" viewBox="0 0 22 22" fill="none" xmlns="http://www.w3.org/2000/svg">
<g clip-path="url(#clip0_940_600)">
<path d="M18.9015 7.74579C17.939 3.51079 14.2448 1.60413 10.9998 1.60413C10.9998 1.60413 10.9998 1.60413 10.9907 1.60413C7.75484 1.60413 4.05151 3.50163 3.08901 7.73663C2.01651 12.4666 4.91318 16.4725 7.53484 18.9933C8.50651 19.9283 9.75318 20.3958 10.9998 20.3958C12.2465 20.3958 13.4932 19.9283 14.4557 18.9933C17.0773 16.4725 19.974 12.4758 18.9015 7.74579ZM10.9998 12.3383C9.40484 12.3383 8.11234 11.0458 8.11234 9.45079C8.11234 7.85579 9.40484 6.56329 10.9998 6.56329C12.5948 6.56329 13.8873 7.85579 13.8873 9.45079C13.8873 11.0458 12.5948 12.3383 10.9998 12.3383Z" fill="#C9C9C9" fill-opacity="0.7"/>
</g>
<defs>
<clipPath id="clip0_940_600">
<rect width="22" height="22" fill="white"/>
</clipPath>
</defs>
</svg>
