<svg width="22" height="22" viewBox="0 0 22 22" fill="none" xmlns="http://www.w3.org/2000/svg">
<path d="M16.9309 15.4275L17.2884 18.3242C17.38 19.085 16.5642 19.6167 15.9134 19.2225L12.7417 17.3342C12.5217 17.2059 12.4667 16.9309 12.5859 16.7109C13.0442 15.8675 13.2917 14.9142 13.2917 13.9609C13.2917 10.6059 10.4134 7.87421 6.87502 7.87421C6.15086 7.87421 5.44502 7.98421 4.78502 8.20421C4.44586 8.31421 4.11586 8.00254 4.19836 7.65421C5.03252 4.31754 8.24086 1.83337 12.0725 1.83337C16.5459 1.83337 20.1667 5.21587 20.1667 9.38671C20.1667 11.8617 18.8925 14.0525 16.9309 15.4275Z" fill="#C9C9C9" fill-opacity="0.7"/>
<path d="M11.9168 13.9608C11.9168 15.0516 11.5135 16.06 10.8352 16.8575C9.92766 17.9575 8.4885 18.6633 6.87516 18.6633L4.48266 20.0841C4.07933 20.3316 3.566 19.9925 3.621 19.525L3.85016 17.7191C2.62183 16.8666 1.8335 15.5008 1.8335 13.9608C1.8335 12.3475 2.69516 10.9266 4.01516 10.0833C4.831 9.55165 5.81183 9.24915 6.87516 9.24915C9.66183 9.24915 11.9168 11.3575 11.9168 13.9608Z" fill="#C9C9C9" fill-opacity="0.7"/>
</svg>
