<svg width="28" height="35" viewBox="0 0 28 35" fill="none" xmlns="http://www.w3.org/2000/svg">
<path d="M23.5551 23.4033L22.2367 21.21C21.9451 20.7317 21.6884 19.81 21.6884 19.25V17.0683C21.6884 12.8333 18.2467 9.39166 14.0234 9.39166C9.78841 9.40333 6.34674 12.8333 6.34674 17.0683V19.2383C6.34674 19.7983 6.09007 20.72 5.81007 21.1983L4.49174 23.3917C3.99007 24.2433 3.87341 25.2117 4.18841 26.0517C4.50341 26.9033 5.21507 27.58 6.14841 27.8833C7.40841 28.3033 8.68007 28.6067 9.97507 28.8283C10.1034 28.8517 10.2317 28.8633 10.3601 28.8867C10.5234 28.91 10.6984 28.9333 10.8734 28.9567C11.1767 29.0033 11.4801 29.0383 11.7951 29.0617C12.5301 29.1317 13.2767 29.1667 14.0234 29.1667C14.7584 29.1667 15.4934 29.1317 16.2167 29.0617C16.4851 29.0383 16.7534 29.015 17.0101 28.98C17.2201 28.9567 17.4301 28.9333 17.6401 28.8983C17.7684 28.8867 17.8967 28.8633 18.0251 28.84C19.3317 28.63 20.6267 28.3033 21.8867 27.8833C22.7851 27.58 23.4734 26.9033 23.8001 26.04C24.1267 25.165 24.0334 24.2083 23.5551 23.4033ZM14.8751 18.6667C14.8751 19.1567 14.4784 19.5533 13.9884 19.5533C13.4984 19.5533 13.1017 19.1567 13.1017 18.6667V15.05C13.1017 14.56 13.4984 14.1633 13.9884 14.1633C14.4784 14.1633 14.8751 14.56 14.8751 15.05V18.6667Z" fill="#404040"/>
<path d="M17.3016 30.345C16.8116 31.6983 15.5166 32.6666 14 32.6666C13.0783 32.6666 12.1683 32.2933 11.5266 31.6283C11.1533 31.2783 10.8733 30.8116 10.71 30.3333C10.8616 30.3566 11.0133 30.3683 11.1766 30.3916C11.445 30.4266 11.725 30.4616 12.005 30.485C12.67 30.5433 13.3466 30.5783 14.0233 30.5783C14.6883 30.5783 15.3533 30.5433 16.0066 30.485C16.2516 30.4616 16.4966 30.45 16.73 30.415C16.9166 30.3916 17.1033 30.3683 17.3016 30.345Z" fill="#404040"/>
<circle cx="14" cy="5" r="5" fill="#6E6EF7"/>
</svg>
