<svg width="22" height="22" viewBox="0 0 22 22" fill="none" xmlns="http://www.w3.org/2000/svg">
<path d="M6.41683 1.83337H5.50016C2.75016 1.83337 1.8335 3.47421 1.8335 5.50004V6.41671V19.25C1.8335 20.0109 2.69516 20.4417 3.30016 19.9834L4.86766 18.81C5.23433 18.535 5.74766 18.5717 6.07766 18.9017L7.59933 20.4325C7.95683 20.79 8.5435 20.79 8.901 20.4325L10.441 18.8925C10.7618 18.5717 11.2752 18.535 11.6327 18.81L13.2002 19.9834C13.8052 20.4325 14.6668 20.0017 14.6668 19.25V3.66671C14.6668 2.65837 15.4918 1.83337 16.5002 1.83337H6.41683ZM10.3127 12.6042H6.18766C5.81183 12.6042 5.50016 12.2925 5.50016 11.9167C5.50016 11.5409 5.81183 11.2292 6.18766 11.2292H10.3127C10.6885 11.2292 11.0002 11.5409 11.0002 11.9167C11.0002 12.2925 10.6885 12.6042 10.3127 12.6042ZM11.0002 8.93754H5.50016C5.12433 8.93754 4.81266 8.62587 4.81266 8.25004C4.81266 7.87421 5.12433 7.56254 5.50016 7.56254H11.0002C11.376 7.56254 11.6877 7.87421 11.6877 8.25004C11.6877 8.62587 11.376 8.93754 11.0002 8.93754Z" fill="#C9C9C9" fill-opacity="0.7"/>
<path d="M16.509 1.83337V3.20837C17.114 3.20837 17.6915 3.45587 18.1132 3.86837C18.5532 4.31754 18.7915 4.89504 18.7915 5.50004V7.71837C18.7915 8.39671 18.489 8.70837 17.8015 8.70837H16.0415V3.67587C16.0415 3.41921 16.2523 3.20837 16.509 3.20837V1.83337ZM16.509 1.83337C15.4915 1.83337 14.6665 2.65837 14.6665 3.67587V10.0834H17.8015C19.2498 10.0834 20.1665 9.16671 20.1665 7.71837V5.50004C20.1665 4.49171 19.754 3.57504 19.094 2.90587C18.4248 2.24587 17.5173 1.84254 16.509 1.83337C16.5182 1.83337 16.509 1.83337 16.509 1.83337Z" fill="#C9C9C9" fill-opacity="0.7"/>
</svg>
