<svg width="22" height="22" viewBox="0 0 22 22" fill="none" xmlns="http://www.w3.org/2000/svg">
<path d="M11.0002 1.83337C8.5985 1.83337 6.646 3.78587 6.646 6.18754C6.646 8.54337 8.4885 10.45 10.8902 10.5325C10.9635 10.5234 11.0368 10.5234 11.0918 10.5325C11.1102 10.5325 11.1193 10.5325 11.1377 10.5325C11.1468 10.5325 11.1468 10.5325 11.156 10.5325C13.5027 10.45 15.3452 8.54337 15.3543 6.18754C15.3543 3.78587 13.4018 1.83337 11.0002 1.83337Z" fill="#C9C9C9" fill-opacity="0.7"/>
<path d="M15.6569 12.9709C13.0994 11.2659 8.92854 11.2659 6.35271 12.9709C5.18854 13.7501 4.54688 14.8042 4.54688 15.9317C4.54688 17.0592 5.18854 18.1042 6.34354 18.8742C7.62688 19.7359 9.31354 20.1667 11.0002 20.1667C12.6869 20.1667 14.3735 19.7359 15.6569 18.8742C16.8119 18.0951 17.4535 17.0501 17.4535 15.9134C17.4444 14.7859 16.8119 13.7409 15.6569 12.9709Z" fill="#C9C9C9" fill-opacity="0.7"/>
</svg>
