<svg width="42" height="42" viewBox="0 0 42 42" fill="none" xmlns="http://www.w3.org/2000/svg">
<circle opacity="0.5" cx="21" cy="21" r="21" fill="#E6EAF5"/>
<path d="M20.5 31.9166C19.2153 31.9166 18.0042 31.6691 16.8667 31.1739C15.7292 30.6788 14.7354 30.0062 13.8854 29.1562C13.0347 28.3055 12.3618 27.3114 11.8667 26.1739C11.3715 25.0364 11.1243 23.8257 11.125 22.5416H13.2083C13.2083 24.5555 13.9201 26.2743 15.3438 27.6979C16.7674 29.1215 18.4861 29.8333 20.5 29.8333C22.5139 29.8333 24.2326 29.1215 25.6563 27.6979C27.0799 26.2743 27.7917 24.5555 27.7917 22.5416H29.875C29.875 23.8263 29.6274 25.0375 29.1323 26.175C28.6372 27.3125 27.9646 28.3062 27.1146 29.1562C26.2639 30.0069 25.2698 30.6798 24.1323 31.175C22.9948 31.6701 21.784 31.9173 20.5 31.9166ZM11.125 22.5416C11.125 21.2569 11.3726 20.0458 11.8677 18.9083C12.3628 17.7708 13.0354 16.777 13.8854 15.927C14.7361 15.0763 15.7302 14.4034 16.8677 13.9083C18.0052 13.4132 19.216 13.1659 20.5 13.1666C21.5764 13.1666 22.6094 13.3402 23.599 13.6875C24.5885 14.0347 25.5174 14.5382 26.3854 15.1979L27.8438 13.7395L29.3021 15.1979L27.8438 16.6562C28.5035 17.5243 29.0069 18.4531 29.3542 19.4427C29.7014 20.4323 29.875 21.4652 29.875 22.5416H27.7917C27.7917 20.5277 27.0799 18.809 25.6563 17.3854C24.2326 15.9618 22.5139 15.25 20.5 15.25C18.4861 15.25 16.7674 15.9618 15.3438 17.3854C13.9201 18.809 13.2083 20.5277 13.2083 22.5416H11.125ZM17.375 12.125V10.0416H23.625V12.125H17.375ZM20.5 15.25C18.6597 15.25 17.0625 15.8489 15.7083 17.0468C14.3542 18.2448 13.5469 19.7291 13.2865 21.5H16.9844L18.3385 24L22.5833 16.552L25.2917 21.5H27.7135C27.4531 19.7291 26.6458 18.2448 25.2917 17.0468C23.9375 15.8489 22.3403 15.25 20.5 15.25ZM20.5 29.8333C22.3403 29.8333 23.9375 29.2343 25.2917 28.0364C26.6458 26.8385 27.4531 25.3541 27.7135 23.5833H24.0156L22.6615 21.0833L18.4167 28.5312L15.7083 23.5833H13.2865C13.5469 25.3541 14.3542 26.8385 15.7083 28.0364C17.0625 29.2343 18.6597 29.8333 20.5 29.8333ZM20.5 29.8333C18.4861 29.8333 16.7674 29.1215 15.3438 27.6979C13.9201 26.2743 13.2083 24.5555 13.2083 22.5416C13.2083 20.5277 13.9201 18.809 15.3438 17.3854C16.7674 15.9618 18.4861 15.25 20.5 15.25C22.5139 15.25 24.2326 15.9618 25.6563 17.3854C27.0799 18.809 27.7917 20.5277 27.7917 22.5416C27.7917 24.5555 27.0799 26.2743 25.6563 27.6979C24.2326 29.1215 22.5139 29.8333 20.5 29.8333Z" fill="url(#paint0_linear_513_3512)"/>
<defs>
<linearGradient id="paint0_linear_513_3512" x1="20.5" y1="10.0416" x2="20.5" y2="31.9166" gradientUnits="userSpaceOnUse">
<stop offset="0.236667" stop-color="#9747FF"/>
<stop offset="0.756667" stop-color="#D941FF"/>
</linearGradient>
</defs>
</svg>
