<svg width="95" height="103" viewBox="0 0 95 103" fill="none" xmlns="http://www.w3.org/2000/svg">
<path d="M42.5917 8.5498C40.6917 8.5498 39.1875 10.1743 39.1875 12.2263V48.3928H53.7146L47.5 41.6811C46.3521 40.4413 46.3521 38.3893 47.5 37.1495C48.6479 35.9098 50.5479 35.9098 51.6958 37.1495L62.9375 49.3333C64.0854 50.5731 64.0854 52.6251 62.9375 53.8648L51.6958 66.0485C51.1021 66.6898 50.35 66.989 49.5979 66.989C48.8458 66.989 48.0938 66.6898 47.5 66.0485C46.3521 64.8088 46.3521 62.7568 47.5 61.5171L53.675 54.848H39.1875V90.4588C39.1875 92.468 40.6917 94.1353 42.5917 94.1353C65.9063 94.1353 82.175 76.565 82.175 51.3853C82.175 26.2056 65.8667 8.5498 42.5917 8.5498Z" fill="#1F2A40"/>
<path d="M15.7939 48.3931C14.171 48.3931 12.8252 49.8466 12.8252 51.5993C12.8252 53.3521 14.171 54.8056 15.7939 54.8056H39.1481V48.3931H15.7939Z" fill="#1F2A40"/>
</svg>
