<svg width="42" height="42" viewBox="0 0 42 42" fill="none" xmlns="http://www.w3.org/2000/svg">
<circle opacity="0.5" cx="21" cy="21" r="21" fill="#F1F2FA"/>
<path d="M25 30V28C25 26.9391 24.5786 25.9217 23.8284 25.1716C23.0783 24.4214 22.0609 24 21 24H15C13.9391 24 12.9217 24.4214 12.1716 25.1716C11.4214 25.9217 11 26.9391 11 28V30" stroke="url(#paint0_linear_507_3475)" stroke-width="2" stroke-linecap="round" stroke-linejoin="round"/>
<path d="M18 20C20.2091 20 22 18.2091 22 16C22 13.7909 20.2091 12 18 12C15.7909 12 14 13.7909 14 16C14 18.2091 15.7909 20 18 20Z" stroke="url(#paint1_linear_507_3475)" stroke-width="2" stroke-linecap="round" stroke-linejoin="round"/>
<path d="M31 30V28C30.9993 27.1137 30.7044 26.2528 30.1614 25.5523C29.6184 24.8519 28.8581 24.3516 28 24.13M25 12.13C25.8604 12.3503 26.623 12.8507 27.1676 13.5523C27.7122 14.2539 28.0078 15.1168 28.0078 16.005C28.0078 16.8932 27.7122 17.7561 27.1676 18.4577C26.623 19.1593 25.8604 19.6597 25 19.88" stroke="url(#paint2_linear_507_3475)" stroke-width="2" stroke-linecap="round" stroke-linejoin="round"/>
<defs>
<linearGradient id="paint0_linear_507_3475" x1="18" y1="24" x2="18" y2="30" gradientUnits="userSpaceOnUse">
<stop offset="0.236667" stop-color="#9747FF"/>
<stop offset="0.756667" stop-color="#D941FF"/>
</linearGradient>
<linearGradient id="paint1_linear_507_3475" x1="18" y1="12" x2="18" y2="20" gradientUnits="userSpaceOnUse">
<stop offset="0.236667" stop-color="#9747FF"/>
<stop offset="0.756667" stop-color="#D941FF"/>
</linearGradient>
<linearGradient id="paint2_linear_507_3475" x1="28" y1="12.13" x2="28" y2="30" gradientUnits="userSpaceOnUse">
<stop offset="0.236667" stop-color="#9747FF"/>
<stop offset="0.756667" stop-color="#D941FF"/>
</linearGradient>
</defs>
</svg>
