<svg width="176" height="92" viewBox="0 0 176 92" fill="none" xmlns="http://www.w3.org/2000/svg">
<g filter="url(#filter0_dddd_950_531)">
<path d="M19.8649 35L16.1804 9.96025H20.0437L23.0485 32.3887H23.6208L27.4841 9.96025H34.2448L38.1081 32.3887H38.6805L41.6495 9.96025H45.5127L41.8283 35H35.0676L31.1328 12.2496H30.5604L26.6614 35H19.8649ZM57.3513 35.5008C55.5866 35.5008 54.0126 35.1431 52.6295 34.4277C51.2702 33.6884 50.1971 32.6391 49.4101 31.2798C48.6231 29.9205 48.2297 28.3108 48.2297 26.4507V25.9141C48.2297 24.0541 48.6231 22.4563 49.4101 21.1208C50.1971 19.7615 51.2702 18.7122 52.6295 17.973C54.0126 17.2337 55.5866 16.8641 57.3513 16.8641C59.116 16.8641 60.6899 17.2337 62.0731 17.973C63.4562 18.7122 64.5413 19.7615 65.3282 21.1208C66.1152 22.4563 66.5087 24.0541 66.5087 25.9141V26.4507C66.5087 28.3108 66.1152 29.9205 65.3282 31.2798C64.5413 32.6391 63.4562 33.6884 62.0731 34.4277C60.6899 35.1431 59.116 35.5008 57.3513 35.5008ZM57.3513 32.2099C58.9729 32.2099 60.2845 31.6971 61.2861 30.6717C62.3115 29.6224 62.8242 28.1796 62.8242 26.3434V26.0215C62.8242 24.1852 62.3235 22.7544 61.3219 21.7289C60.3203 20.6796 58.9967 20.155 57.3513 20.155C55.7535 20.155 54.4419 20.6796 53.4165 21.7289C52.4149 22.7544 51.9141 24.1852 51.9141 26.0215V26.3434C51.9141 28.1796 52.4149 29.6224 53.4165 30.6717C54.4419 31.6971 55.7535 32.2099 57.3513 32.2099ZM71.0957 35V17.3649H74.7086V19.4396H75.281C75.5671 18.7003 76.0202 18.1637 76.6403 17.8299C77.2841 17.4722 78.0711 17.2933 79.0012 17.2933H81.1116V20.62H78.8581C77.6657 20.62 76.688 20.9539 75.9248 21.6216C75.1617 22.2655 74.7802 23.2671 74.7802 24.6264V35H71.0957ZM84.9291 35V9.96025H88.6135V24.2329H89.1859L96.1254 17.3649H101.026L92.1191 25.9141L101.312 35H96.4474L89.1859 27.6669H88.6135V35H84.9291ZM104.631 35V9.96025H108.316V35H104.631ZM113.783 35V17.3649H117.468V35H113.783ZM115.644 14.9682C114.928 14.9682 114.32 14.7416 113.819 14.2885C113.342 13.8116 113.104 13.2035 113.104 12.4642C113.104 11.725 113.342 11.1288 113.819 10.6757C114.32 10.1987 114.928 9.96025 115.644 9.96025C116.383 9.96025 116.991 10.1987 117.468 10.6757C117.945 11.1288 118.183 11.725 118.183 12.4642C118.183 13.2035 117.945 13.8116 117.468 14.2885C116.991 14.7416 116.383 14.9682 115.644 14.9682ZM122.936 35V17.3649H126.549V20.0119H127.121C127.455 19.2965 128.051 18.6288 128.91 18.0087C129.768 17.3887 131.044 17.0787 132.737 17.0787C134.073 17.0787 135.253 17.3768 136.278 17.973C137.328 18.5692 138.15 19.4157 138.747 20.5127C139.343 21.5858 139.641 22.8855 139.641 24.4118V35H135.957V24.6979C135.957 23.1717 135.575 22.0509 134.812 21.3354C134.049 20.5962 132.999 20.2265 131.664 20.2265C130.138 20.2265 128.91 20.7273 127.98 21.7289C127.073 22.7305 126.62 24.1852 126.62 26.093V35H122.936ZM151.597 24.3402C150.166 24.3402 148.878 24.0302 147.734 23.4102C146.613 22.7663 145.718 21.8839 145.051 20.7631C144.407 19.6423 144.085 18.3545 144.085 16.8998C144.085 15.4451 144.407 14.1574 145.051 13.0366C145.718 11.9157 146.613 11.0453 147.734 10.4253C148.878 9.78139 150.166 9.45945 151.597 9.45945C153.028 9.45945 154.304 9.78139 155.424 10.4253C156.569 11.0453 157.463 11.9157 158.107 13.0366C158.775 14.1574 159.109 15.4451 159.109 16.8998C159.109 18.3545 158.775 19.6423 158.107 20.7631C157.463 21.8839 156.569 22.7663 155.424 23.4102C154.304 24.0302 153.028 24.3402 151.597 24.3402ZM151.597 22.8736C153.409 22.8736 154.852 22.337 155.925 21.2639C157.022 20.1669 157.571 18.7122 157.571 16.8998C157.571 15.0874 157.022 13.6447 155.925 12.5715C154.852 11.4746 153.409 10.9261 151.597 10.9261C149.784 10.9261 148.33 11.4746 147.233 12.5715C146.136 13.6447 145.587 15.0874 145.587 16.8998C145.587 18.7122 146.136 20.1669 147.233 21.2639C148.33 22.337 149.784 22.8736 151.597 22.8736ZM149.021 20.7989V12.8577H152.062C152.944 12.8577 153.612 13.0723 154.065 13.5016C154.518 13.9308 154.745 14.4436 154.745 15.0397C154.745 15.4928 154.625 15.8982 154.387 16.256C154.172 16.5898 153.815 16.8521 153.314 17.0429V17.3291C153.719 17.3529 154.005 17.496 154.172 17.7583C154.363 17.9968 154.459 18.2949 154.459 18.6526V20.7989H152.992V18.6168C152.992 18.1161 152.742 17.8657 152.241 17.8657H150.452V20.7989H149.021ZM150.452 16.5779H152.098C152.503 16.5779 152.801 16.4587 152.992 16.2202C153.183 15.9579 153.278 15.6717 153.278 15.3617C153.278 15.0278 153.183 14.7536 152.992 14.5389C152.801 14.3005 152.503 14.1812 152.098 14.1812H150.452V16.5779Z" fill="white"/>
<circle cx="115.874" cy="12.8776" r="3.57711" fill="#1F2A40"/>
<path d="M115.705 6.08105L116.361 9.61778L118.97 7.14187L117.422 10.3885L120.988 9.91914L117.827 11.6356L120.988 13.352L117.422 12.8826L118.97 16.1293L116.361 13.6534L115.705 17.1901L115.05 13.6534L112.441 16.1293L113.989 12.8826L110.423 13.352L113.584 11.6356L110.423 9.91914L113.989 10.3885L112.441 7.14187L115.05 9.61778L115.705 6.08105Z" fill="url(#paint0_linear_950_531)"/>
</g>
<defs>
<filter id="filter0_dddd_950_531" x="0.0378075" y="3.08105" width="175.214" height="88.8482" filterUnits="userSpaceOnUse" color-interpolation-filters="sRGB">
<feFlood flood-opacity="0" result="BackgroundImageFix"/>
<feColorMatrix in="SourceAlpha" type="matrix" values="0 0 0 0 0 0 0 0 0 0 0 0 0 0 0 0 0 0 127 0" result="hardAlpha"/>
<feOffset dy="2.57143"/>
<feGaussianBlur stdDeviation="2.78571"/>
<feColorMatrix type="matrix" values="0 0 0 0 0.270588 0 0 0 0 0.270588 0 0 0 0 0.270588 0 0 0 0.1 0"/>
<feBlend mode="normal" in2="BackgroundImageFix" result="effect1_dropShadow_950_531"/>
<feColorMatrix in="SourceAlpha" type="matrix" values="0 0 0 0 0 0 0 0 0 0 0 0 0 0 0 0 0 0 127 0" result="hardAlpha"/>
<feOffset dy="10.1429"/>
<feGaussianBlur stdDeviation="5.07143"/>
<feColorMatrix type="matrix" values="0 0 0 0 0.270588 0 0 0 0 0.270588 0 0 0 0 0.270588 0 0 0 0.09 0"/>
<feBlend mode="normal" in2="effect1_dropShadow_950_531" result="effect2_dropShadow_950_531"/>
<feColorMatrix in="SourceAlpha" type="matrix" values="0 0 0 0 0 0 0 0 0 0 0 0 0 0 0 0 0 0 127 0" result="hardAlpha"/>
<feOffset dy="22.7143"/>
<feGaussianBlur stdDeviation="6.78571"/>
<feColorMatrix type="matrix" values="0 0 0 0 0.270588 0 0 0 0 0.270588 0 0 0 0 0.270588 0 0 0 0.05 0"/>
<feBlend mode="normal" in2="effect2_dropShadow_950_531" result="effect3_dropShadow_950_531"/>
<feColorMatrix in="SourceAlpha" type="matrix" values="0 0 0 0 0 0 0 0 0 0 0 0 0 0 0 0 0 0 127 0" result="hardAlpha"/>
<feOffset dy="40.2857"/>
<feGaussianBlur stdDeviation="8.07143"/>
<feColorMatrix type="matrix" values="0 0 0 0 0.270588 0 0 0 0 0.270588 0 0 0 0 0.270588 0 0 0 0.01 0"/>
<feBlend mode="normal" in2="effect3_dropShadow_950_531" result="effect4_dropShadow_950_531"/>
<feBlend mode="normal" in="SourceGraphic" in2="effect4_dropShadow_950_531" result="shape"/>
</filter>
<linearGradient id="paint0_linear_950_531" x1="115.705" y1="6.08105" x2="115.705" y2="17.1901" gradientUnits="userSpaceOnUse">
<stop offset="0.186623" stop-color="#9747FF"/>
<stop offset="0.58971" stop-color="#D941FF"/>
</linearGradient>
</defs>
</svg>
